<?xml version="1.0" encoding="utf-8"?>
<svg id="svg2" width="467.000000pt" height="127.000000pt" viewBox="0 0 467.000000 127.000000" preserveAspectRatio="xMidYMid meet" xmlns="http://www.w3.org/2000/svg">
  <g transform="matrix(0.04056, 0, 0, -0.02914, -0.626016, 81.295441)" id="g6" style="fill: rgb(0, 0, 255); stroke: none;">
    <path d="M 0,635 0,0 l 2335,0 2335,0 0,635 0,635 -2335,0 -2335,0 0,-635 z m 765,590 C 978,1171 1151,998 1205,785 1283,475 1082,145 765,65 455,-13 125,188 45,505 c -78,307 122,637 435,719 73,19 211,20 285,1 z m 2763,-215 c 149,-17 199,-67 203,-205 l 3,-70 -114,0 -114,0 -7,33 c -4,18 -9,36 -12,39 -25,24 -382,27 -426,4 -31,-17 -41,-66 -41,-198 0,-117 1,-125 24,-148 30,-30 113,-39 293,-33 151,6 170,14 175,77 l 3,36 115,0 115,0 0,-85 c -1,-185 -75,-220 -460,-220 -213,0 -346,14 -402,41 -63,30 -83,70 -95,191 -11,116 -3,353 14,412 24,80 86,113 238,126 130,11 395,11 488,0 z M 2139,999 c 94,-11 112,-18 158,-62 55,-52 68,-108 68,-297 -1,-197 -13,-256 -62,-311 -62,-68 -83,-71 -535,-77 l -398,-4 0,381 0,381 343,0 c 188,0 380,-5 426,-11 z m 561,-369 0,-380 -125,0 -125,0 0,380 0,380 125,0 125,0 0,-380 z m 1960,290 0,-90 -302,-2 -303,-3 0,-50 0,-50 288,-3 287,-2 0,-85 0,-85 -290,0 -290,0 0,-55 0,-55 305,0 305,0 0,-95 0,-95 -417,2 -418,3 -3,365 c -1,201 0,371 3,377 3,10 96,13 420,13 l 415,0 0,-90 z" id="path8" style="fill:#0000ff"/>
    <path d="M 390,1045 C 277,999 181,959 177,958 c -4,-2 93,-44 216,-94 l 223,-91 64,27 c 36,14 140,54 232,90 92,35 167,65 165,66 -10,11 -428,167 -452,170 -20,2 -99,-26 -235,-81 z m 421,-7 c 101,-40 186,-77 189,-81 4,-8 -63,-36 -317,-132 l -63,-24 0,154 c 0,85 2,155 3,155 2,0 87,-33 188,-72 z M 600,955 c 0,-80 -4,-145 -8,-145 -5,0 -75,27 -158,61 -82,33 -160,65 -174,70 -24,10 -24,11 -5,22 24,13 327,136 338,137 4,0 7,-65 7,-145 z" id="path10" style="fill:#0000ff"/>
    <path d="m 132,629 3,-273 220,-88 c 121,-48 223,-88 227,-88 4,0 8,121 8,269 l 0,269 -217,87 c -120,48 -224,90 -231,92 -10,4 -12,-51 -10,-268 z" id="path12" style="fill:#0000ff"/>
    <path d="M 875,810 655,721 652,450 c -2,-257 -1,-272 15,-266 10,4 111,44 226,89 l 207,82 0,272 c 0,150 -1,273 -2,273 -2,-1 -102,-41 -223,-90 z m 205,-190 c 0,-132 -2,-240 -5,-240 -3,0 -96,37 -206,81 l -200,82 3,81 3,81 190,77 c 105,42 196,77 203,77 9,1 12,-53 12,-239 z M 868,449 c 97,-39 180,-74 185,-78 5,-5 -193,-90 -370,-158 -10,-4 -13,30 -13,151 0,102 4,156 10,156 6,0 91,-32 188,-71 z" id="path14" style="fill:#0000ff"/>
    <path d="m 1778,812 -178,-2 0,-180 0,-180 224,0 c 130,0 236,4 253,10 46,17 58,49 58,164 0,105 -14,159 -43,172 -31,14 -136,19 -314,16 z" id="path16" style="fill:#0000ff"/>
  </g>
</svg>